<svg width="100" height="100" viewBox="0 0 100 100" fill="none" xmlns="http://www.w3.org/2000/svg">
<path d="M78.6 0H20.95C9.37963 0 0 9.37963 0 20.95V78.6C0 90.1704 9.37963 99.55 20.95 99.55H78.6C90.1704 99.55 99.55 90.1704 99.55 78.6V20.95C99.55 9.37963 90.1704 0 78.6 0Z" fill="#89DBC4"/>
<path d="M87.92 41.3601C87.92 30.4301 70.81 21.5701 49.71 21.5701C28.61 21.5701 11.51 30.4301 11.51 41.3601V63.1801C11.508 63.9404 11.5919 64.6986 11.76 65.4401C13.92 75.3001 30.09 83.0001 49.71 83.0001C69.33 83.0001 85.51 75.3301 87.71 65.4701C87.8733 64.7277 87.9571 63.9701 87.96 63.2101V41.3701L87.92 41.3601Z" fill="#FFD087"/>
<path d="M49.7101 83.9201C29.8301 83.9201 13.1101 76.0601 10.8301 65.6401C10.6508 64.8324 10.5603 64.0075 10.5601 63.1801V41.3601C10.5601 29.9201 28.1201 20.6201 49.7101 20.6201C71.3001 20.6201 88.8701 29.9201 88.8701 41.3601V63.1801C88.8698 64.0075 88.7793 64.8324 88.6001 65.6401C86.3201 76.0601 69.6001 83.9201 49.7101 83.9201ZM49.7101 22.5201C29.1701 22.5201 12.4601 30.9701 12.4601 41.3601V63.1801C12.4629 63.8692 12.5366 64.5561 12.6801 65.2301C14.7801 74.8001 30.6801 82.0101 49.6801 82.0101C68.6801 82.0101 84.6201 74.8001 86.6801 65.2301C86.862 64.5607 86.9694 63.8732 87.0001 63.1801V41.3601C87.0001 31.0001 70.2501 22.5201 49.7101 22.5201Z" fill="#7B413B"/>
<path d="M87.92 41.3601C87.92 45.6134 87.9433 49.8601 87.99 54.1001C87.99 57.6101 88.53 61.7701 84.8 63.8001C84.6195 63.8975 84.4231 63.9618 84.22 63.9901C81.05 64.3001 80.63 58.5601 76.81 61.6001C74.7 63.2801 74.05 66.2501 72.57 68.3901C71.2369 70.4677 69.2902 72.0789 67 73.0001C61.66 74.9201 58.49 70.5201 54 68.7701C52.6401 68.184 51.1166 68.099 49.7 68.5301C47.93 69.1701 46.7 70.8001 45.21 71.9101C41.33 74.7801 35.91 73.6201 32.74 70.2601C31.17 68.5901 29.57 66.7101 27.34 66.1701C24.43 65.4701 21.54 67.0301 18.63 66.0901C15.7131 64.9565 13.3648 62.7125 12.1 59.8501C11.87 59.3601 11.65 58.8501 11.46 58.3701V41.3701C11.46 30.4401 28.56 21.5801 49.66 21.5801C70.76 21.5801 87.92 30.4301 87.92 41.3601Z" fill="white"/>
<path d="M87.2801 41.36C87.2801 46.36 87.3901 51.45 87.4001 56.49C87.4001 58.27 87.3201 60.23 86.2401 61.73C85.73 62.46 84.7501 63.44 83.7901 63.36C83.1558 63.2249 82.5894 62.8709 82.1901 62.36C81.5434 61.5095 80.7344 60.7957 79.8101 60.26C79.2386 60.0774 78.6285 60.0525 78.0441 60.1881C77.4597 60.3236 76.9228 60.6145 76.4901 61.03C74.9201 62.25 74.1001 64.03 73.2501 65.82C72.3514 67.826 71.0033 69.5983 69.3101 71C68.4614 71.7258 67.463 72.2553 66.3861 72.5509C65.3092 72.8465 64.1803 72.9008 63.0801 72.71C61.2526 72.173 59.5332 71.3202 58.0001 70.19C54.6401 68.08 50.9001 66.42 47.4201 69.26C45.6501 70.7 44.2401 72.26 41.9001 72.77C39.8123 73.156 37.6553 72.8024 35.8001 71.77C33.9001 70.77 32.6901 69.04 31.1001 67.62C29.6482 66.2036 27.7082 65.3983 25.6801 65.37C23.1601 65.37 20.6801 66.29 18.2601 65.26C16.2315 64.317 14.5444 62.7696 13.4301 60.83C12.7488 59.961 12.3136 58.9248 12.1701 57.83V55.41C12.1701 50.85 12.1701 46.29 12.1701 41.73C12.1701 36.33 15.9901 32.27 20.3101 29.5C27.3101 25 35.9001 23.05 44.1001 22.42C53.3315 21.5942 62.6334 22.722 71.4001 25.73C77.2501 27.84 84.18 31.46 86.59 37.62C87.0582 38.8117 87.3023 40.0796 87.3101 41.36C87.3295 41.5147 87.4048 41.6569 87.5217 41.7601C87.6386 41.8632 87.7891 41.9201 87.9451 41.9201C88.101 41.9201 88.2515 41.8632 88.3684 41.7601C88.4854 41.6569 88.5606 41.5147 88.5801 41.36C88.5101 35.02 83.3501 30.36 78.2101 27.44C70.4101 23 61.1901 21.3 52.3501 21C43.09 20.67 33.5001 21.92 24.9501 25.61C19.2801 28.07 12.8401 32.2 11.2201 38.61C10.9018 40.2327 10.7876 41.8889 10.8801 43.54V51.74C10.8801 53.85 10.8301 55.97 10.8801 58.08C11.04 59.1975 11.4652 60.2605 12.1201 61.18C13.1508 63.0127 14.6045 64.5727 16.3601 65.73C18.3617 66.9031 20.7205 67.3116 23.0001 66.88C24.319 66.6303 25.6694 66.5932 27.0001 66.77C28.3148 67.1 29.5103 67.7931 30.4501 68.77C31.9801 70.22 33.2301 71.83 35.1201 72.85C36.8633 73.8123 38.8416 74.2662 40.8301 74.16C42.7183 74.042 44.524 73.3435 46.0001 72.16C48.2201 70.39 49.8601 68.29 53.0001 69.16C56.9001 70.21 59.6701 73.82 63.8301 74.16C67.9901 74.5 71.8301 71.16 73.7301 67.68C74.7901 65.68 75.4901 63.34 77.3601 61.98C78.7901 60.98 79.6501 61.58 80.6901 62.71C81.3773 63.6748 82.389 64.3599 83.5401 64.64C85.1701 64.86 86.6701 63.44 87.4701 62.15C88.2929 60.6159 88.69 58.8894 88.6201 57.15C88.6801 54.76 88.6201 52.35 88.5501 49.96C88.5501 47.1 88.5501 44.24 88.5501 41.38C88.5332 41.2249 88.4602 41.0813 88.3449 40.9762C88.2296 40.8711 88.0799 40.8117 87.9239 40.8093C87.7679 40.8068 87.6164 40.8614 87.4978 40.9628C87.3792 41.0642 87.3018 41.2055 87.2801 41.36Z" fill="#7B413B"/>
<path d="M83 31.66C83 27.31 81.16 18.27 75.28 16.89C68.79 15.36 63.52 19.8 61.03 22.46C53.5199 21.2734 45.8701 21.2734 38.36 22.46C35.87 19.8 30.59 15.36 24.1 16.89C18.23 18.27 16.34 27.31 16.39 31.66C13.27 34.52 11.49 37.83 11.49 41.36C11.49 52.29 28.59 61.14 49.69 61.14C70.79 61.14 87.9 52.29 87.9 41.36C87.92 37.83 86.14 34.52 83 31.66Z" fill="white"/>
<path d="M49.7101 62.2199C28.0501 62.2199 10.4301 52.8599 10.4301 41.3599C10.4301 37.7799 12.1301 34.2699 15.3301 31.1899C15.4201 27.1899 17.0601 17.4499 23.8801 15.8399C30.5301 14.2799 35.9301 18.3999 38.7701 21.3099C46.0268 20.2299 53.4034 20.2299 60.6601 21.3099C63.5001 18.3999 68.8901 14.3099 75.5501 15.8399C82.3701 17.4499 84.01 27.2299 84.09 31.1899C87.3 34.2699 89.0001 37.7799 89.0001 41.3599C89.0001 52.8599 71.3701 62.2199 49.7101 62.2199ZM26.7901 17.6599C25.9754 17.662 25.1636 17.756 24.3701 17.9399C19.1101 19.1799 17.4401 27.8699 17.4901 31.6499V32.1299L17.1401 32.4499C14.1401 35.1899 12.5901 38.2699 12.5901 41.3599C12.5901 51.6699 29.2401 60.0699 49.7101 60.0699C70.1801 60.0699 86.84 51.6699 86.84 41.3599C86.84 38.2699 85.2701 35.1899 82.2901 32.4499L81.9301 32.1299V31.6499C81.9301 27.8699 80.3101 19.1799 75.0501 17.9399C69.1201 16.5499 64.2201 20.6299 61.8301 23.1999L61.4401 23.6099L60.8701 23.5199C53.4711 22.37 45.939 22.37 38.5401 23.5199L37.9701 23.6099L37.5801 23.1999C35.5301 20.9999 31.6101 17.6599 26.7901 17.6599Z" fill="#7B413B"/>
<path d="M68.43 42.9201C70.3243 42.9201 71.86 41.3844 71.86 39.4901C71.86 37.5957 70.3243 36.0601 68.43 36.0601C66.5357 36.0601 65 37.5957 65 39.4901C65 41.3844 66.5357 42.9201 68.43 42.9201Z" fill="#7D3D42"/>
<path d="M68.43 43C67.7397 43 67.065 42.7953 66.4911 42.4118C65.9171 42.0284 65.4698 41.4833 65.2057 40.8456C64.9415 40.2079 64.8724 39.5062 65.0071 38.8292C65.1417 38.1522 65.4741 37.5303 65.9622 37.0422C66.4503 36.5541 67.0722 36.2217 67.7491 36.0871C68.4261 35.9524 69.1279 36.0215 69.7656 36.2857C70.4033 36.5498 70.9483 36.9972 71.3318 37.5711C71.7153 38.145 71.92 38.8198 71.92 39.51C71.92 40.4356 71.5523 41.3233 70.8978 41.9778C70.2433 42.6323 69.3556 43 68.43 43ZM68.43 36.14C67.7631 36.138 67.1105 36.334 66.555 36.7031C65.9995 37.0722 65.566 37.5978 65.3094 38.2134C65.0528 38.829 64.9846 39.507 65.1135 40.1613C65.2424 40.8157 65.5626 41.4171 66.0335 41.8894C66.5044 42.3617 67.1049 42.6837 67.7589 42.8145C68.4129 42.9454 69.091 42.8792 69.7073 42.6244C70.3237 42.3697 70.8506 41.9377 71.2214 41.3833C71.5921 40.8289 71.79 40.177 71.79 39.51C71.7926 39.0666 71.7077 38.6271 71.5402 38.2165C71.3726 37.806 71.1257 37.4326 70.8136 37.1177C70.5014 36.8027 70.1302 36.5525 69.7212 36.3813C69.3122 36.2101 68.8734 36.1213 68.43 36.12V36.14Z" fill="#D53D2C"/>
<path d="M30.64 42.9201C32.5343 42.9201 34.07 41.3844 34.07 39.4901C34.07 37.5957 32.5343 36.0601 30.64 36.0601C28.7456 36.0601 27.21 37.5957 27.21 39.4901C27.21 41.3844 28.7456 42.9201 30.64 42.9201Z" fill="#7D3D42"/>
<path d="M30.64 43C29.9502 42.998 29.2764 42.7917 28.7038 42.407C28.1312 42.0223 27.6855 41.4765 27.4228 40.8387C27.1602 40.2008 27.0925 39.4994 27.2283 38.823C27.3641 38.1467 27.6973 37.5258 28.1858 37.0387C28.6742 36.5516 29.2961 36.2202 29.9728 36.0864C30.6496 35.9525 31.3508 36.0222 31.9879 36.2866C32.625 36.5511 33.1695 36.9984 33.5526 37.5721C33.9356 38.1458 34.14 38.8202 34.14 39.51C34.1374 40.4365 33.7675 41.3242 33.1114 41.9784C32.4553 42.6326 31.5666 43 30.64 43ZM30.64 36.14C29.9722 36.138 29.3189 36.3345 28.763 36.7045C28.207 37.0745 27.7736 37.6013 27.5176 38.2181C27.2616 38.8349 27.1946 39.5138 27.3251 40.1687C27.4556 40.8236 27.7778 41.425 28.2507 41.8965C28.7236 42.368 29.3259 42.6884 29.9812 42.8169C30.6365 42.9455 31.3153 42.8765 31.9313 42.6187C32.5473 42.3608 33.0728 41.9258 33.4411 41.3687C33.8095 40.8117 34.004 40.1578 34 39.49C34 38.598 33.6464 37.7423 33.0165 37.1106C32.3867 36.4789 31.5321 36.1227 30.64 36.12V36.14Z" fill="#D53D2C"/>
<path d="M57.13 44.5C56.9803 44.4634 56.8221 44.4868 56.6894 44.5653C56.5567 44.6438 56.46 44.7711 56.42 44.92C56.02 46.45 53.93 46.76 52.58 46.48C51.9191 46.3603 51.3174 46.0223 50.8714 45.5201C50.4254 45.0178 50.1608 44.3805 50.12 43.71C50.12 43.71 50.12 43.65 50.12 43.62V43.51L50.06 43.41L50 43.33L49.89 43.25H49.82H49.69H49.62H49.5H49.43H49.3H49.23L49.12 43.33V43.4L49.05 43.51V43.62C49.05 43.62 49.05 43.67 49.05 43.71C49.0093 44.3805 48.7447 45.0178 48.2987 45.5201C47.8527 46.0223 47.251 46.3603 46.59 46.48C45.24 46.76 43.15 46.48 42.75 44.92C42.7103 44.7702 42.6126 44.6422 42.4785 44.5644C42.3444 44.4866 42.1849 44.4652 42.035 44.505C41.8852 44.5448 41.7573 44.6425 41.6795 44.7766C41.6016 44.9106 41.5803 45.0702 41.62 45.22C42.12 47.12 44.06 47.73 45.68 47.73C46.0655 47.7291 46.4502 47.6957 46.83 47.63C47.4111 47.5086 47.9607 47.2683 48.4444 46.9241C48.928 46.5799 49.3351 46.1393 49.64 45.63C49.9426 46.1412 50.349 46.5834 50.833 46.9279C51.317 47.2724 51.8679 47.5115 52.45 47.63C52.8264 47.6961 53.2079 47.7296 53.59 47.73C55.21 47.73 57.15 47.12 57.65 45.22C57.6689 45.138 57.6701 45.053 57.6534 44.9706C57.6368 44.8881 57.6027 44.8102 57.5534 44.742C57.5042 44.6738 57.4409 44.6169 57.3679 44.5752C57.2949 44.5335 57.2138 44.5078 57.13 44.5Z" fill="#7D3D42"/>
<path d="M80.05 41.8499C79.9125 41.85 79.7794 41.8021 79.6735 41.7145C79.5676 41.6268 79.4956 41.505 79.47 41.3699C79.4465 41.2165 79.4834 41.06 79.5729 40.9332C79.6624 40.8064 79.7976 40.7192 79.95 40.6899L84 39.9999C84.0755 39.9871 84.1529 39.9893 84.2276 40.0065C84.3022 40.0237 84.3728 40.0556 84.4351 40.1002C84.4974 40.1448 84.5502 40.2014 84.5905 40.2666C84.6308 40.3317 84.6578 40.4042 84.67 40.4799C84.6843 40.5549 84.6835 40.632 84.6675 40.7066C84.6514 40.7812 84.6206 40.8519 84.5768 40.9144C84.5329 40.9769 84.477 41.0299 84.4123 41.0704C84.3475 41.1108 84.2754 41.1379 84.2 41.1499L80.11 41.8799L80.05 41.8499Z" fill="#7D3D42"/>
<path d="M84 46.1001C83.9404 46.1096 83.8796 46.1096 83.82 46.1001L79.87 44.8001C79.7971 44.7764 79.7296 44.7387 79.6713 44.6889C79.613 44.6392 79.5651 44.5785 79.5303 44.5102C79.4955 44.442 79.4744 44.3676 79.4684 44.2912C79.4623 44.2148 79.4714 44.138 79.495 44.0651C79.5187 43.9922 79.5564 43.9247 79.6061 43.8664C79.6559 43.8081 79.7166 43.7602 79.7849 43.7254C79.8531 43.6905 79.9275 43.6695 80.0039 43.6634C80.0803 43.6574 80.1571 43.6664 80.23 43.6901L84.23 44.9601C84.3812 44.9906 84.5141 45.0799 84.5994 45.2083C84.6847 45.3368 84.7155 45.4939 84.685 45.6451C84.6545 45.7963 84.5652 45.9291 84.4368 46.0145C84.3083 46.0998 84.1512 46.1306 84 46.1001Z" fill="#7D3D42"/>
<path d="M19.17 41.85H19.06L15 41.11C14.849 41.0832 14.7147 40.9976 14.6267 40.8721C14.5386 40.7465 14.5038 40.5912 14.53 40.44C14.5592 40.2876 14.6464 40.1525 14.7732 40.0629C14.9 39.9734 15.0566 39.9366 15.21 39.96L19.3 40.69C19.4538 40.7033 19.5961 40.7771 19.6955 40.8953C19.7949 41.0134 19.8433 41.1662 19.83 41.32C19.8167 41.4739 19.7429 41.6161 19.6248 41.7155C19.5066 41.8149 19.3538 41.8633 19.2 41.85H19.17Z" fill="#7D3D42"/>
<path d="M15.21 46.1C15.0879 46.0997 14.969 46.0609 14.8702 45.9891C14.7714 45.9173 14.6979 45.8161 14.66 45.7C14.6221 45.562 14.6357 45.4148 14.6982 45.286C14.7608 45.1572 14.868 45.0556 15 45L19 43.73C19.1459 43.6826 19.3046 43.695 19.4414 43.7643C19.5782 43.8337 19.6819 43.9544 19.73 44.1C19.7777 44.2473 19.7656 44.4073 19.6964 44.5457C19.6272 44.6842 19.5064 44.7899 19.36 44.84L15.36 46.11C15.3098 46.1133 15.2593 46.11 15.21 46.1Z" fill="#7D3D42"/>
<path d="M72.21 46.99C74.143 46.99 75.71 46.1573 75.71 45.13C75.71 44.1028 74.143 43.27 72.21 43.27C70.277 43.27 68.71 44.1028 68.71 45.13C68.71 46.1573 70.277 46.99 72.21 46.99Z" fill="#F397B7"/>
<path d="M27.05 46.99C28.983 46.99 30.55 46.1573 30.55 45.13C30.55 44.1028 28.983 43.27 27.05 43.27C25.1171 43.27 23.55 44.1028 23.55 45.13C23.55 46.1573 25.1171 46.99 27.05 46.99Z" fill="#F397B7"/>
</svg>
